# xmcd
#
# Track frame offsets:
#	150
#	4725
#	18590
#	33642
#	50200
#	69735
#	92072
#	105582
#	121602
#	140040
#	155417
#	170675
#	187922
#	208782
#	224477
#
# Disc length: 3054 seconds
#
# Revision: 1
# Processed by: cddbd v1.5.2PL0 Copyright (c) Steve Scherf et al.
# Submitted via: audiograbber 1.83.01
#
DISCID=db0bec0f
DTITLE=Don Edwards - My Hero Gene Autry
DYEAR=1998
DGENRE=
TTITLE0=Back In The Saddle Again (intro)
TTITLE1=Way Out West In Texas
TTITLE2=That Silver Haired Daddy Of Mine
TTITLE3=Ridin' Down The Canyon
TTITLE4=Dear Old Western Skies
TTITLE5=My Hero Gene Autry
TTITLE6=It's My Lazy Day
TTITLE7=Twilight On The Trail
TTITLE8=Cowboy Blues
TTITLE9=Mexicali Rose
TTITLE10=Have I Told You Lately That I Love You
TTITLE11=There's A Rainbow On The Rio Colorado
TTITLE12=South Of The Border
TTITLE13=Let The Rest Of The World Go By
TTITLE14=Back In The Saddle Again (coda)
EXTD=
EXTT0=
EXTT1=
EXTT2=
EXTT3=
EXTT4=
EXTT5=
EXTT6=
EXTT7=
EXTT8=
EXTT9=
EXTT10=
EXTT11=
EXTT12=
EXTT13=
EXTT14=
PLAYORDER=
